<svg id="Layer_1" data-name="Layer 1" xmlns="http://www.w3.org/2000/svg" viewBox="0 0 221.4 123.59"><defs><style>.cls-1{fill:#fff;}</style></defs><title>elements</title><path class="cls-1" d="M17.5,32.48,10.16,8.54H10c.26,4.87.4,8.12.4,9.75V32.48H4.58V2h8.81L20.61,25.3h.13L28.4,2h8.81V32.48h-6V18c0-.69,0-1.47,0-2.36s.11-3.26.28-7.1H31.3l-7.87,23.9Z"/><path class="cls-1" d="M59.21,32.48,58,29.31h-.17a9.44,9.44,0,0,1-3.31,2.81,10.69,10.69,0,0,1-4.43.78A7.16,7.16,0,0,1,44.78,31a7.37,7.37,0,0,1-1.93-5.47A6.16,6.16,0,0,1,45.44,20q2.61-1.77,7.84-2l4-.13v-1q0-3.55-3.63-3.55a16.54,16.54,0,0,0-6.58,1.69L45,10.77A19,19,0,0,1,54,8.66q4.69,0,7.2,2.05c1.67,1.36,2.51,3.44,2.51,6.22V32.48ZM57.33,21.67l-2.46.08a7.93,7.93,0,0,0-4.13,1,3.15,3.15,0,0,0-1.36,2.8c0,1.8,1,2.69,3.09,2.69A4.91,4.91,0,0,0,56,27a4.49,4.49,0,0,0,1.32-3.38Z"/><path class="cls-1" d="M83.24,8.71a10.72,10.72,0,0,1,2.15.18l-.48,6A7.28,7.28,0,0,0,83,14.65a6.77,6.77,0,0,0-4.75,1.57,5.62,5.62,0,0,0-1.7,4.38V32.48H70.21V9.14H75L76,13.07h.32a8.72,8.72,0,0,1,2.93-3.16A7.15,7.15,0,0,1,83.24,8.71Z"/><path class="cls-1" d="M95.74,19.79l2.78-3.55,6.53-7.1h7.18L103,19.27l9.84,13.21h-7.35L98.73,23,96,25.22v7.26H89.62V0H96V14.49l-.33,5.3Z"/><path class="cls-1" d="M126.7,32.9q-5.64,0-8.81-3.11T114.71,21c0-3.91,1-6.94,2.94-9.07a10.42,10.42,0,0,1,8.11-3.2c3.3,0,5.86.93,7.7,2.81a10.67,10.67,0,0,1,2.76,7.79V22.4h-15a6.1,6.1,0,0,0,1.6,4.24A5.68,5.68,0,0,0,127,28.16a17.74,17.74,0,0,0,4-.44,19.76,19.76,0,0,0,3.92-1.4v4.93a14.64,14.64,0,0,1-3.57,1.24A22.58,22.58,0,0,1,126.7,32.9Zm-.9-19.67a4,4,0,0,0-3.17,1.29,5.89,5.89,0,0,0-1.32,3.64h8.94A5.27,5.27,0,0,0,129,14.52,4.14,4.14,0,0,0,125.8,13.23Z"/><path class="cls-1" d="M151.22,27.83a13.74,13.74,0,0,0,4-.74v4.74a14.24,14.24,0,0,1-5.84,1.07c-2.55,0-4.4-.65-5.57-1.93s-1.74-3.22-1.74-5.8V13.92H139V11.23l3.51-2.13,1.84-4.93h4.07v5H155v4.78h-6.53V25.17a2.48,2.48,0,0,0,.76,2A3,3,0,0,0,151.22,27.83Z"/><path class="cls-1" d="M159.68,3.11q0-3.1,3.46-3.11t3.47,3.11a3,3,0,0,1-.87,2.31,3.64,3.64,0,0,1-2.6.82Q159.68,6.24,159.68,3.11Zm6.64,29.37H160V9.14h6.37Z"/><path class="cls-1" d="M194.54,32.48h-6.37V18.85a6.54,6.54,0,0,0-.9-3.79,3.26,3.26,0,0,0-2.86-1.26,4.3,4.3,0,0,0-3.86,1.78c-.79,1.19-1.19,3.17-1.19,5.92v11H173V9.14h4.86l.86,3h.35A6.76,6.76,0,0,1,182,9.57a10,10,0,0,1,4.25-.86q4.06,0,6.18,2.2c1.41,1.47,2.11,3.58,2.11,6.35Z"/><path class="cls-1" d="M221.4,9.14v3.24l-3.65.94a6.34,6.34,0,0,1,1,3.51,7.07,7.07,0,0,1-2.62,5.85,11.32,11.32,0,0,1-7.27,2.1l-1.15-.07-.94-.1a2.13,2.13,0,0,0-1,1.67q0,1.38,3.51,1.38h4a9.07,9.07,0,0,1,5.86,1.65,5.89,5.89,0,0,1,2,4.84,7.2,7.2,0,0,1-3.41,6.35q-3.42,2.25-9.8,2.25-4.89,0-7.46-1.7a5.39,5.39,0,0,1-2.58-4.77,5,5,0,0,1,1.31-3.53,7.52,7.52,0,0,1,3.86-2,4.35,4.35,0,0,1-1.71-1.37,3.37,3.37,0,0,1,0-4.24,9,9,0,0,1,2.24-1.74,6.21,6.21,0,0,1-2.91-2.55,7.71,7.71,0,0,1-1.08-4.13,7.28,7.28,0,0,1,2.49-5.91c1.65-1.39,4-2.08,7.09-2.08a17.7,17.7,0,0,1,2.33.17c.9.12,1.47.21,1.72.26Zm-18,26.64a2.29,2.29,0,0,0,1.26,2.06,6.85,6.85,0,0,0,3.54.76,12.6,12.6,0,0,0,5.36-.94,2.88,2.88,0,0,0,1.95-2.57,1.83,1.83,0,0,0-1.15-1.82,9.51,9.51,0,0,0-3.55-.5h-3.3a5,5,0,0,0-2.93.83A2.53,2.53,0,0,0,203.39,35.78Zm2.32-19a4.75,4.75,0,0,0,.86,3,3.15,3.15,0,0,0,2.64,1.11,3.06,3.06,0,0,0,2.63-1.11,4.87,4.87,0,0,0,.84-3q0-4.21-3.47-4.21T205.71,16.78Z"/><path class="cls-1" d="M33.88,61.37a7.9,7.9,0,0,1-3,6.51q-3,2.39-8.28,2.38A19.39,19.39,0,0,1,14,68.42v-6a34.64,34.64,0,0,0,5.23,1.94,15.32,15.32,0,0,0,3.91.57,5.52,5.52,0,0,0,3.27-.82,2.78,2.78,0,0,0,1.14-2.42,2.71,2.71,0,0,0-.5-1.6,5.89,5.89,0,0,0-1.47-1.34,39.26,39.26,0,0,0-4-2.07,19.27,19.27,0,0,1-4.2-2.52,9.63,9.63,0,0,1-2.23-2.82,8,8,0,0,1-.84-3.76,7.9,7.9,0,0,1,2.75-6.37q2.75-2.31,7.59-2.31a18.22,18.22,0,0,1,4.54.56A32.35,32.35,0,0,1,33.74,41l-2.09,5a30,30,0,0,0-4-1.4,13.19,13.19,0,0,0-3.14-.4,4.15,4.15,0,0,0-2.82.86,2.82,2.82,0,0,0-1,2.23,2.7,2.7,0,0,0,.4,1.49,4.25,4.25,0,0,0,1.26,1.24,40.29,40.29,0,0,0,4.1,2.14,16.36,16.36,0,0,1,5.87,4.1A8,8,0,0,1,33.88,61.37Z"/><path class="cls-1" d="M60.12,58.13q0,5.7-3,8.92t-8.37,3.21a11.7,11.7,0,0,1-5.93-1.47,9.81,9.81,0,0,1-4-4.23,14.16,14.16,0,0,1-1.38-6.43q0-5.72,3-8.89t8.39-3.17a11.82,11.82,0,0,1,5.93,1.46,9.68,9.68,0,0,1,3.94,4.19A14.08,14.08,0,0,1,60.12,58.13ZM44,58.13a9.88,9.88,0,0,0,1.13,5.24,4.07,4.07,0,0,0,3.71,1.78,4,4,0,0,0,3.66-1.77,9.85,9.85,0,0,0,1.12-5.25,9.61,9.61,0,0,0-1.13-5.19,4.06,4.06,0,0,0-3.69-1.74,4.1,4.1,0,0,0-3.68,1.72A9.67,9.67,0,0,0,44,58.13Z"/><path class="cls-1" d="M71.75,69.84H65.38V37.36h6.37Z"/><path class="cls-1" d="M95,69.84l-.85-3h-.34a6.73,6.73,0,0,1-2.9,2.51,9.78,9.78,0,0,1-4.28.89q-4.11,0-6.2-2.2a8.88,8.88,0,0,1-2.09-6.34V46.51h6.37V60.14a6.56,6.56,0,0,0,.9,3.79,3.27,3.27,0,0,0,2.86,1.26,4.3,4.3,0,0,0,3.86-1.79q1.18-1.78,1.19-5.91v-11h6.37V69.84Z"/><path class="cls-1" d="M116.36,65.19a13.74,13.74,0,0,0,4-.73V69.2a14.33,14.33,0,0,1-5.85,1.06q-3.83,0-5.56-1.93c-1.16-1.29-1.75-3.22-1.75-5.79V51.29h-3v-2.7l3.5-2.13,1.84-4.92h4.07v5h6.54v4.78h-6.54V62.54a2.51,2.51,0,0,0,.76,2A3,3,0,0,0,116.36,65.19Z"/><path class="cls-1" d="M124.81,40.47q0-3.11,3.47-3.11t3.46,3.11a3.06,3.06,0,0,1-.86,2.31,3.65,3.65,0,0,1-2.6.82Q124.82,43.6,124.81,40.47Zm6.64,29.37h-6.37V46.51h6.37Z"/><path class="cls-1" d="M159.34,58.13q0,5.7-3,8.92T148,70.26A11.72,11.72,0,0,1,142,68.79a9.78,9.78,0,0,1-3.94-4.23,14.16,14.16,0,0,1-1.38-6.43q0-5.72,3-8.89t8.4-3.17A11.78,11.78,0,0,1,154,47.53a9.7,9.7,0,0,1,4,4.19A14.08,14.08,0,0,1,159.34,58.13Zm-16.14,0a9.77,9.77,0,0,0,1.14,5.24,4.06,4.06,0,0,0,3.71,1.78,4,4,0,0,0,3.66-1.77,10,10,0,0,0,1.11-5.25,9.62,9.62,0,0,0-1.12-5.19,4.79,4.79,0,0,0-7.37,0A9.66,9.66,0,0,0,143.2,58.13Z"/><path class="cls-1" d="M186.14,69.84h-6.37V56.21a6.65,6.65,0,0,0-.89-3.79A3.28,3.28,0,0,0,176,51.16,4.32,4.32,0,0,0,172.15,53Q171,54.74,171,58.86v11H164.6V46.51h4.86l.86,3h.35a6.73,6.73,0,0,1,2.94-2.56,10.07,10.07,0,0,1,4.24-.86q4.08,0,6.18,2.2t2.11,6.36Z"/><path class="cls-1" d="M209,62.91a6.43,6.43,0,0,1-2.5,5.47Q204,70.26,199,70.26a23.36,23.36,0,0,1-4.34-.34,16,16,0,0,1-3.36-1V63.64a21.41,21.41,0,0,0,4,1.4,16.1,16.1,0,0,0,3.92.57c2.31,0,3.46-.67,3.46-2a1.65,1.65,0,0,0-.46-1.22,6.41,6.41,0,0,0-1.58-1.06c-.75-.4-1.76-.86-3-1.39a18.82,18.82,0,0,1-3.95-2.09,5.76,5.76,0,0,1-1.84-2.2,7.33,7.33,0,0,1-.57-3.06,5.53,5.53,0,0,1,2.41-4.81c1.6-1.14,3.88-1.7,6.83-1.7a19.37,19.37,0,0,1,8.21,1.84l-1.92,4.59c-1.17-.5-2.27-.91-3.28-1.23a10.3,10.3,0,0,0-3.11-.48c-1.88,0-2.82.5-2.82,1.52a1.78,1.78,0,0,0,.91,1.48,24.18,24.18,0,0,0,4,1.86,18.46,18.46,0,0,1,4,2.07,6,6,0,0,1,1.88,2.21A6.83,6.83,0,0,1,209,62.91Z"/><path class="cls-1" d="M213,105.4a18.66,18.66,0,0,1-11.36-3.6c-2.27-1.47-4.07-2.62-8-2.62s-5.73,1.15-8,2.62a19.72,19.72,0,0,1-22.72,0c-2.28-1.47-4.08-2.62-8-2.62s-5.73,1.15-8,2.62a19.74,19.74,0,0,1-22.73,0c-2.27-1.47-4.07-2.62-8-2.62s-5.72,1.15-8,2.62a19.72,19.72,0,0,1-22.72,0c-2.27-1.47-4.07-2.62-8-2.62s-5.72,1.15-8,2.62a18.66,18.66,0,0,1-11.36,3.6,18.66,18.66,0,0,1-11.36-3.6c-2.27-1.47-4.07-2.62-8-2.62s-5.72,1.15-8,2.62a18.66,18.66,0,0,1-11.36,3.6A18.66,18.66,0,0,1,8,101.8c-2.28-1.47-4.07-2.62-8-2.62V93a18.66,18.66,0,0,1,11.36,3.6c2.28,1.47,4.07,2.62,8,2.62s5.72-1.15,8-2.62A18.66,18.66,0,0,1,38.72,93a18.66,18.66,0,0,1,11.36,3.6c2.28,1.47,4.07,2.62,8,2.62s5.73-1.15,8-2.62a19.72,19.72,0,0,1,22.72,0c2.28,1.47,4.08,2.62,8,2.62s5.73-1.15,8-2.62a19.74,19.74,0,0,1,22.73,0c2.27,1.47,4.07,2.62,8,2.62s5.72-1.15,8-2.62a19.72,19.72,0,0,1,22.72,0c2.27,1.47,4.07,2.62,8,2.62s5.72-1.15,8-2.62a19.72,19.72,0,0,1,22.72,0c2.28,1.47,4.07,2.62,8,2.62Z"/><path class="cls-1" d="M213,123.12a18.59,18.59,0,0,1-11.36-3.6c-2.27-1.46-4.07-2.62-8-2.62s-5.73,1.16-8,2.62a19.72,19.72,0,0,1-22.72,0c-2.28-1.46-4.08-2.62-8-2.62s-5.73,1.16-8,2.62a19.74,19.74,0,0,1-22.73,0c-2.27-1.46-4.07-2.62-8-2.62s-5.72,1.16-8,2.62a19.72,19.72,0,0,1-22.72,0c-2.27-1.46-4.07-2.62-8-2.62s-5.72,1.16-8,2.62a18.59,18.59,0,0,1-11.36,3.6,18.59,18.59,0,0,1-11.36-3.6c-2.27-1.46-4.07-2.62-8-2.62s-5.72,1.16-8,2.62a18.59,18.59,0,0,1-11.36,3.6A18.59,18.59,0,0,1,8,119.52c-2.28-1.46-4.07-2.62-8-2.62v-6.22a18.59,18.59,0,0,1,11.36,3.61c2.28,1.46,4.07,2.61,8,2.61s5.72-1.15,8-2.61a18.59,18.59,0,0,1,11.36-3.61,18.59,18.59,0,0,1,11.36,3.61c2.28,1.46,4.07,2.61,8,2.61s5.73-1.15,8-2.61a19.68,19.68,0,0,1,22.72,0c2.28,1.46,4.08,2.61,8,2.61s5.73-1.15,8-2.61a19.69,19.69,0,0,1,22.73,0c2.27,1.46,4.07,2.61,8,2.61s5.72-1.15,8-2.61a19.68,19.68,0,0,1,22.72,0c2.27,1.46,4.07,2.61,8,2.61s5.72-1.15,8-2.61a19.68,19.68,0,0,1,22.72,0c2.28,1.46,4.07,2.61,8,2.61Z"/></svg>