<svg id="Layer_1" data-name="Layer 1" xmlns="http://www.w3.org/2000/svg" viewBox="0 0 400.65 538.11"><defs><style>.cls-1{fill:#fff;}</style></defs><title>elements</title><path class="cls-1" d="M196.84,538.11l-8.31-13.67A122.26,122.26,0,0,0,215.62,337.9c-23.18-25.59-55.16-40-89-55.2C90.83,266.62,53.84,250,28.46,218.89,10.47,196.84.37,168,0,137.67s9.07-59.4,26.53-81.86c29.6-38,81.61-59.27,135.72-55.35,44.92,3.25,91.87,23,135.77,57.2,38.84,30.24,71.27,67.74,102.62,104l-12.1,10.47C357.7,136.45,325.8,99.56,288.2,70.29c-41.39-32.22-85.34-50.85-127.1-53.87C112.24,12.89,65.53,31.74,39.17,65.63,7.67,106.14,8.41,169,40.86,208.77c23,28.17,56.65,43.31,92.3,59.34,33.87,15.23,68.9,31,94.32,59.05a138.24,138.24,0,0,1-30.64,211Z"/></svg>