<svg id="Layer_1" data-name="Layer 1" xmlns="http://www.w3.org/2000/svg" viewBox="0 0 216.17 119.99"><defs><style>.cls-1{fill:#fff;}</style></defs><title>elements</title><path class="cls-1" d="M49,2h9.5Q65,2,67.91,3.81a6.44,6.44,0,0,1,2.93,5.88,7.43,7.43,0,0,1-1.28,4.48,5.13,5.13,0,0,1-3.42,2.11v.21a6.74,6.74,0,0,1,4.19,2.42,7.92,7.92,0,0,1,1.28,4.72,7.77,7.77,0,0,1-3,6.51q-3,2.34-8.2,2.34H49Zm6.48,12.09h3.75A6.77,6.77,0,0,0,63,13.23a3,3,0,0,0,1.18-2.69A2.68,2.68,0,0,0,62.92,8a8.23,8.23,0,0,0-4.06-.77h-3.4Zm0,5.13v8h4.21a6.22,6.22,0,0,0,3.95-1A3.76,3.76,0,0,0,64.89,23q0-3.8-5.43-3.8Z"/><path class="cls-1" d="M90.23,8.71a10.65,10.65,0,0,1,2.15.18l-.48,6A7.22,7.22,0,0,0,90,14.65a6.74,6.74,0,0,0-4.74,1.57,5.63,5.63,0,0,0-1.71,4.38V32.48H77.21V9.14H82L83,13.07h.31a8.72,8.72,0,0,1,2.93-3.16A7.2,7.2,0,0,1,90.23,8.71Z"/><path class="cls-1" d="M111.44,32.48l-1.23-3.17H110a9.44,9.44,0,0,1-3.31,2.81,10.69,10.69,0,0,1-4.43.78A7.16,7.16,0,0,1,97,31a7.37,7.37,0,0,1-1.93-5.47A6.16,6.16,0,0,1,97.67,20q2.61-1.77,7.84-2l4-.13v-1q0-3.55-3.63-3.55a16.5,16.5,0,0,0-6.58,1.69l-2.1-4.3a19,19,0,0,1,8.93-2.11q4.69,0,7.2,2.05c1.67,1.36,2.51,3.44,2.51,6.22V32.48Zm-1.88-10.81-2.46.08a8,8,0,0,0-4.14,1,3.17,3.17,0,0,0-1.35,2.8c0,1.8,1,2.69,3.09,2.69A4.91,4.91,0,0,0,108.24,27a4.49,4.49,0,0,0,1.32-3.38Z"/><path class="cls-1" d="M144,32.48h-6.36V18.85a6.54,6.54,0,0,0-.9-3.79,3.27,3.27,0,0,0-2.86-1.26A4.29,4.29,0,0,0,130,15.58c-.79,1.19-1.19,3.17-1.19,5.92v11h-6.37V9.14h4.86l.86,3h.36a6.7,6.7,0,0,1,2.93-2.56,9.93,9.93,0,0,1,4.25-.86q4.06,0,6.18,2.2a8.84,8.84,0,0,1,2.1,6.35Z"/><path class="cls-1" d="M157.93,32.9a7.58,7.58,0,0,1-6.46-3.2c-1.57-2.12-2.35-5.08-2.35-8.85s.8-6.81,2.39-8.94a7.74,7.74,0,0,1,6.58-3.2,7.63,7.63,0,0,1,6.73,3.42H165a26.12,26.12,0,0,1-.49-4.66V0h6.39V32.48h-4.88l-1.23-3h-.28A7.27,7.27,0,0,1,157.93,32.9Zm2.23-5.07a4.33,4.33,0,0,0,3.58-1.42Q164.88,25,165,21.58V20.9c0-2.51-.38-4.31-1.16-5.39a4.27,4.27,0,0,0-3.76-1.63,3.72,3.72,0,0,0-3.31,1.81,9.58,9.58,0,0,0-1.18,5.25,9,9,0,0,0,1.19,5.16A3.89,3.89,0,0,0,160.16,27.83Z"/><path class="cls-1" d="M22.52,69.84l-2.21-7.26H9.18L7,69.84H0L10.77,39.2h7.91L29.49,69.84ZM18.77,57.15Q15.69,47.28,15.31,46c-.26-.86-.44-1.54-.55-2q-.69,2.67-3.95,13.21Z"/><path class="cls-1" d="M42.31,70.26q-10.89,0-10.89-12,0-6,3-9.09t8.5-3.14a16.3,16.3,0,0,1,7.26,1.58l-1.88,4.93c-1-.4-1.93-.73-2.8-1a8.88,8.88,0,0,0-2.58-.39q-5,0-5,7.06c0,4.56,1.65,6.85,5,6.85a11.59,11.59,0,0,0,3.4-.49,12.26,12.26,0,0,0,3.13-1.54v5.45a10.62,10.62,0,0,1-3.12,1.36A17.65,17.65,0,0,1,42.31,70.26Z"/><path class="cls-1" d="M64.65,65.19a13.62,13.62,0,0,0,4-.73V69.2a14.24,14.24,0,0,1-5.84,1.06q-3.83,0-5.56-1.93T55.5,62.54V51.29h-3v-2.7L56,46.46l1.84-4.92h4.07v5H68.4v4.78H61.87V62.54a2.47,2.47,0,0,0,.76,2A3,3,0,0,0,64.65,65.19Z"/><path class="cls-1" d="M73.1,40.47q0-3.11,3.47-3.11T80,40.47a3.06,3.06,0,0,1-.86,2.31,3.65,3.65,0,0,1-2.6.82Q73.11,43.6,73.1,40.47Zm6.64,29.37H73.37V46.51h6.37Z"/><path class="cls-1" d="M92,69.84,83.08,46.51h6.66L94.25,59.8a24.26,24.26,0,0,1,.94,4.78h.12a20.69,20.69,0,0,1,.94-4.78l4.49-13.29h6.66L98.51,69.84Z"/><path class="cls-1" d="M125.56,69.84l-1.23-3.17h-.17a9.42,9.42,0,0,1-3.31,2.81,10.69,10.69,0,0,1-4.43.78,7.18,7.18,0,0,1-5.3-1.92,7.4,7.4,0,0,1-1.93-5.47,6.17,6.17,0,0,1,2.6-5.48c1.73-1.17,4.35-1.82,7.84-2l4.05-.12v-1c0-2.36-1.21-3.55-3.63-3.55a16.67,16.67,0,0,0-6.58,1.69l-2.11-4.3A19.07,19.07,0,0,1,120.3,46q4.7,0,7.2,2t2.5,6.22V69.84ZM123.68,59l-2.46.08a7.89,7.89,0,0,0-4.14,1,3.14,3.14,0,0,0-1.35,2.79q0,2.7,3.09,2.7a4.87,4.87,0,0,0,3.53-1.28A4.44,4.44,0,0,0,123.68,61Z"/><path class="cls-1" d="M146.39,65.19a13.74,13.74,0,0,0,4-.73V69.2a14.33,14.33,0,0,1-5.85,1.06c-2.54,0-4.4-.64-5.56-1.93s-1.74-3.22-1.74-5.79V51.29H134.2v-2.7l3.51-2.13,1.83-4.92h4.07v5h6.54v4.78h-6.54V62.54a2.48,2.48,0,0,0,.77,2A3,3,0,0,0,146.39,65.19Z"/><path class="cls-1" d="M154.84,40.47q0-3.11,3.47-3.11t3.46,3.11a3,3,0,0,1-.86,2.31,3.65,3.65,0,0,1-2.6.82Q154.85,43.6,154.84,40.47Zm6.64,29.37h-6.36V46.51h6.36Z"/><path class="cls-1" d="M189.37,58.13q0,5.7-3,8.92T178,70.26a11.69,11.69,0,0,1-5.92-1.47,9.75,9.75,0,0,1-3.95-4.23,14.16,14.16,0,0,1-1.38-6.43q0-5.72,3-8.89c2-2.11,4.78-3.17,8.39-3.17a11.82,11.82,0,0,1,5.93,1.46A9.74,9.74,0,0,1,188,51.72,14.08,14.08,0,0,1,189.37,58.13Zm-16.14,0a9.77,9.77,0,0,0,1.14,5.24,4.07,4.07,0,0,0,3.71,1.78,4,4,0,0,0,3.66-1.77,9.85,9.85,0,0,0,1.12-5.25,9.61,9.61,0,0,0-1.13-5.19,4.79,4.79,0,0,0-7.37,0A9.66,9.66,0,0,0,173.23,58.13Z"/><path class="cls-1" d="M216.17,69.84h-6.36V56.21a6.56,6.56,0,0,0-.9-3.79,3.27,3.27,0,0,0-2.86-1.26A4.3,4.3,0,0,0,202.19,53c-.8,1.19-1.19,3.16-1.19,5.91v11h-6.37V46.51h4.86l.86,3h.36a6.7,6.7,0,0,1,2.93-2.56,10.08,10.08,0,0,1,4.25-.86q4.06,0,6.17,2.2t2.11,6.36Z"/><path class="cls-1" d="M214.79,102a18.66,18.66,0,0,1-11.36-3.6c-2.27-1.47-4.07-2.62-8-2.62s-5.73,1.15-8,2.62a19.72,19.72,0,0,1-22.72,0c-2.28-1.47-4.08-2.62-8-2.62s-5.73,1.15-8,2.62a19.72,19.72,0,0,1-22.72,0c-2.27-1.47-4.07-2.62-8-2.62s-5.72,1.15-8,2.62a19.72,19.72,0,0,1-22.72,0c-2.27-1.47-4.07-2.62-8-2.62s-5.72,1.15-8,2.62A18.66,18.66,0,0,1,59.9,102a18.66,18.66,0,0,1-11.36-3.6c-2.28-1.47-4.07-2.62-8-2.62s-5.73,1.15-8,2.62A18.66,18.66,0,0,1,21.18,102a18.66,18.66,0,0,1-11.36-3.6c-2.28-1.47-4.07-2.62-8-2.62V89.51a18.59,18.59,0,0,1,11.36,3.6c2.27,1.46,4.07,2.62,8,2.62s5.72-1.16,8-2.62a18.59,18.59,0,0,1,11.36-3.6,18.59,18.59,0,0,1,11.36,3.6c2.28,1.46,4.07,2.62,8,2.62s5.73-1.16,8-2.62a19.72,19.72,0,0,1,22.72,0c2.28,1.46,4.07,2.62,8,2.62s5.73-1.16,8-2.62a19.72,19.72,0,0,1,22.72,0c2.28,1.46,4.08,2.62,8,2.62s5.73-1.16,8-2.62a19.74,19.74,0,0,1,22.73,0c2.27,1.46,4.07,2.62,8,2.62s5.72-1.16,8-2.62a19.72,19.72,0,0,1,22.72,0c2.28,1.46,4.07,2.62,8,2.62Z"/><path class="cls-1" d="M214.79,119.67a18.59,18.59,0,0,1-11.36-3.6c-2.27-1.46-4.07-2.62-8-2.62s-5.73,1.16-8,2.62a19.72,19.72,0,0,1-22.72,0c-2.28-1.46-4.08-2.62-8-2.62s-5.73,1.16-8,2.62a19.72,19.72,0,0,1-22.72,0c-2.27-1.46-4.07-2.62-8-2.62s-5.72,1.16-8,2.62a19.72,19.72,0,0,1-22.72,0c-2.27-1.46-4.07-2.62-8-2.62s-5.72,1.16-8,2.62a18.59,18.59,0,0,1-11.36,3.6,18.59,18.59,0,0,1-11.36-3.6c-2.28-1.46-4.07-2.62-8-2.62s-5.73,1.16-8,2.62a18.59,18.59,0,0,1-11.36,3.6,18.59,18.59,0,0,1-11.36-3.6c-2.28-1.46-4.07-2.62-8-2.62v-6.22a18.59,18.59,0,0,1,11.36,3.61c2.27,1.46,4.07,2.61,8,2.61s5.72-1.15,8-2.61a18.59,18.59,0,0,1,11.36-3.61,18.59,18.59,0,0,1,11.36,3.61c2.28,1.46,4.07,2.61,8,2.61s5.73-1.15,8-2.61a19.68,19.68,0,0,1,22.72,0c2.28,1.46,4.07,2.61,8,2.61s5.73-1.15,8-2.61a19.68,19.68,0,0,1,22.72,0c2.28,1.46,4.08,2.61,8,2.61s5.73-1.15,8-2.61a19.69,19.69,0,0,1,22.73,0c2.27,1.46,4.07,2.61,8,2.61s5.72-1.15,8-2.61a19.68,19.68,0,0,1,22.72,0c2.28,1.46,4.07,2.61,8,2.61Z"/></svg>