<svg id="Layer_1" data-name="Layer 1" xmlns="http://www.w3.org/2000/svg" viewBox="0 0 175.31 181.22"><defs><style>.cls-1{fill:#fff;}</style></defs><title>elements</title><path class="cls-1" d="M143.28,181.22,134.21,168c14.67-10.09,24-25.85,25-42.15s-6.35-32.76-19.63-44.15C124.25,68.58,102.16,62.49,80.8,56.61c-4-1.1-8.1-2.23-12.11-3.4C31.73,42.5,9.26,27.23,0,6.54L14.6,0C21.83,16.14,41,28.52,73.14,37.84c3.92,1.14,8,2.26,11.91,3.34,23.06,6.36,46.9,12.93,65,28.41,17.07,14.64,26.49,36.05,25.19,57.28S162,168.36,143.28,181.22Z"/></svg>