<svg id="Layer_1" data-name="Layer 1" xmlns="http://www.w3.org/2000/svg" viewBox="0 0 352.16 194.25"><defs><style>.cls-1{fill:#fff;}</style></defs><title>elements</title><path class="cls-1" d="M106.1,194.25a98.05,98.05,0,0,1-31.71-5.05c-31.16-10.55-57.86-39.86-69.68-76.5C-7,76.52-4,33.33,12.35,0L26.71,7.05C12.09,36.81,9.5,75.41,19.94,107.79,30.23,139.7,53.06,165.09,79.52,174c29.4,10,60.93.58,87.9-9.9,6.08-2.37,12.3-4.92,18.31-7.39,24.23-10,49.29-20.27,75.7-22.4,30.76-2.49,70.95,8.52,91.55,46.88l-14.1,7.57c-16.94-31.56-50.45-40.58-76.15-38.51-23.93,1.94-46.76,11.32-70.92,21.26-6.08,2.5-12.37,5.08-18.6,7.5-18.72,7.28-34.07,11.65-48.28,13.75A127.91,127.91,0,0,1,106.1,194.25Z"/></svg>