<svg id="Layer_1" data-name="Layer 1" xmlns="http://www.w3.org/2000/svg" viewBox="0 0 517.08 495.6"><defs><style>.cls-1{fill:#fff;}</style></defs><title>elements</title><path class="cls-1" d="M42.65,495.6c-53.23-61.9-57.1-159.06-9-226,48-66.74,143.58-97.66,222.42-71.93,21.63,7.06,41.61,17.78,60.93,28.15,12.38,6.65,25.18,13.52,38.11,19.23,27.06,12,66.35,22.89,99.81,7.09,30.71-14.5,49.87-51.85,45.56-88.83C496.73,131,477,98.55,445,72.09c-29.38-24.29-65.08-41.24-99.6-57.64L352.27,0c35.4,16.82,72,34.2,102.92,59.76,35.22,29.1,56.95,65.22,61.2,101.7a110.26,110.26,0,0,1-10.71,60.88c-9.94,20.09-25.12,35.39-43.91,44.27-21.49,10.14-58.56,17.18-113.11-6.92-13.5-6-26.57-13-39.22-19.77-19.56-10.5-38-20.42-58.32-27-72.5-23.66-160.41,4.74-204.47,66.05C2.73,340.05,6.23,428.71,54.78,485.17Z"/></svg>