<svg id="Layer_1" data-name="Layer 1" xmlns="http://www.w3.org/2000/svg" viewBox="0 0 243.18 159.5"><defs><style>.cls-1{fill:#fff;}</style></defs><title>elements</title><path class="cls-1" d="M237,141.78a21.94,21.94,0,0,1-12.54-3.6,16.19,16.19,0,0,0-17.66,0,23.66,23.66,0,0,1-25.09,0,16.19,16.19,0,0,0-17.66,0,23.64,23.64,0,0,1-25.08,0,16.19,16.19,0,0,0-17.66,0,23.66,23.66,0,0,1-25.09,0,16.19,16.19,0,0,0-17.66,0A21.94,21.94,0,0,1,66,141.78a21.94,21.94,0,0,1-12.54-3.6,14.94,14.94,0,0,0-8.83-2.62,14.92,14.92,0,0,0-8.83,2.62,22,22,0,0,1-12.54,3.6,21.94,21.94,0,0,1-12.54-3.6,15,15,0,0,0-8.84-2.62v-6.21A21.94,21.94,0,0,1,14.44,133a15,15,0,0,0,8.84,2.61A14.94,14.94,0,0,0,32.11,133a21.94,21.94,0,0,1,12.54-3.6A21.94,21.94,0,0,1,57.19,133,14.92,14.92,0,0,0,66,135.56,14.92,14.92,0,0,0,74.85,133a21.94,21.94,0,0,1,12.54-3.6A21.94,21.94,0,0,1,99.93,133a16.26,16.26,0,0,0,17.67,0,23.64,23.64,0,0,1,25.08,0,16.24,16.24,0,0,0,17.66,0,23.64,23.64,0,0,1,25.08,0,16.26,16.26,0,0,0,17.67,0,23.64,23.64,0,0,1,25.08,0,14.94,14.94,0,0,0,8.83,2.61Z"/><path class="cls-1" d="M237,159.5a21.94,21.94,0,0,1-12.54-3.6,16.24,16.24,0,0,0-17.66,0,23.66,23.66,0,0,1-25.09,0,16.24,16.24,0,0,0-17.66,0,23.64,23.64,0,0,1-25.08,0,16.24,16.24,0,0,0-17.66,0,23.66,23.66,0,0,1-25.09,0,16.24,16.24,0,0,0-17.66,0A21.94,21.94,0,0,1,66,159.5a21.94,21.94,0,0,1-12.54-3.6,14.94,14.94,0,0,0-8.83-2.61,14.92,14.92,0,0,0-8.83,2.61,22,22,0,0,1-12.54,3.6,21.94,21.94,0,0,1-12.54-3.6,15,15,0,0,0-8.84-2.61v-6.22a21.94,21.94,0,0,1,12.54,3.6,15,15,0,0,0,8.84,2.62,14.94,14.94,0,0,0,8.83-2.62,21.94,21.94,0,0,1,12.54-3.6,21.94,21.94,0,0,1,12.54,3.6A14.92,14.92,0,0,0,66,153.29a14.92,14.92,0,0,0,8.83-2.62,21.94,21.94,0,0,1,12.54-3.6,21.94,21.94,0,0,1,12.54,3.6,16.21,16.21,0,0,0,17.67,0,23.64,23.64,0,0,1,25.08,0,16.19,16.19,0,0,0,17.66,0,23.64,23.64,0,0,1,25.08,0,16.21,16.21,0,0,0,17.67,0,23.64,23.64,0,0,1,25.08,0,14.94,14.94,0,0,0,8.83,2.62Z"/><path class="cls-1" d="M63.33,17.18q0,7.58-3.75,11.65T48.8,32.9q-7,0-10.77-4.07T34.28,17.14Q34.28,9.52,38,5.5t10.81-4q7,0,10.76,4.05T63.33,17.18Zm-22.27,0q0,5.12,1.94,7.7a6.78,6.78,0,0,0,5.8,2.59q7.76,0,7.75-10.29T48.85,6.87A6.83,6.83,0,0,0,43,9.47Q41.06,12.06,41.06,17.18Z"/><path class="cls-1" d="M85.69,32.48l-.86-3H84.5A6.73,6.73,0,0,1,81.6,32a10,10,0,0,1-4.28.89c-2.74,0-4.81-.74-6.2-2.2A8.88,8.88,0,0,1,69,24.36V9.14H75.4V22.77a6.6,6.6,0,0,0,.89,3.79,3.29,3.29,0,0,0,2.87,1.27A4.31,4.31,0,0,0,83,26q1.19-1.78,1.19-5.92v-11h6.36V32.48Z"/><path class="cls-1" d="M107.08,27.83a13.74,13.74,0,0,0,4-.74v4.74a14.24,14.24,0,0,1-5.84,1.07c-2.55,0-4.4-.65-5.57-1.93s-1.74-3.22-1.74-5.8V13.92h-3V11.23L98.4,9.1l1.84-4.93h4.07v5h6.53v4.78h-6.53V25.17a2.48,2.48,0,0,0,.76,2A3,3,0,0,0,107.08,27.83Z"/><path class="cls-1" d="M123.2,32.9a7.58,7.58,0,0,1-6.46-3.2c-1.57-2.12-2.35-5.08-2.35-8.85s.8-6.81,2.39-8.94a7.75,7.75,0,0,1,6.59-3.2,7.63,7.63,0,0,1,6.72,3.42h.21a26,26,0,0,1-.48-4.66V0h6.38V32.48h-4.88l-1.23-3h-.27A7.29,7.29,0,0,1,123.2,32.9Zm2.23-5.07A4.33,4.33,0,0,0,129,26.41q1.14-1.43,1.24-4.83V20.9q0-3.76-1.15-5.39a4.31,4.31,0,0,0-3.77-1.63A3.73,3.73,0,0,0,122,15.69a9.58,9.58,0,0,0-1.18,5.25A9.13,9.13,0,0,0,122,26.1,3.89,3.89,0,0,0,125.43,27.83Z"/><path class="cls-1" d="M164.07,20.77q0,5.7-3,8.91T152.7,32.9a11.7,11.7,0,0,1-5.93-1.47,9.75,9.75,0,0,1-4-4.23,14.19,14.19,0,0,1-1.38-6.43c0-3.81,1-6.78,3-8.89s4.79-3.17,8.39-3.17a11.72,11.72,0,0,1,5.93,1.46,9.68,9.68,0,0,1,3.94,4.19A14,14,0,0,1,164.07,20.77Zm-16.13,0A9.78,9.78,0,0,0,149.07,26a4.08,4.08,0,0,0,3.71,1.77A4,4,0,0,0,156.44,26a9.9,9.9,0,0,0,1.12-5.25,9.67,9.67,0,0,0-1.13-5.2,4.8,4.8,0,0,0-7.37,0A9.67,9.67,0,0,0,147.94,20.77Z"/><path class="cls-1" d="M190.54,20.77q0,5.7-3,8.91t-8.37,3.22a11.75,11.75,0,0,1-5.93-1.47,9.78,9.78,0,0,1-3.94-4.23,14.19,14.19,0,0,1-1.38-6.43c0-3.81,1-6.78,3-8.89s4.78-3.17,8.39-3.17a11.74,11.74,0,0,1,5.93,1.46,9.74,9.74,0,0,1,3.94,4.19A14,14,0,0,1,190.54,20.77Zm-16.14,0A9.77,9.77,0,0,0,175.54,26a4.08,4.08,0,0,0,3.71,1.77A4,4,0,0,0,182.91,26,10,10,0,0,0,184,20.77a9.67,9.67,0,0,0-1.13-5.2,4.8,4.8,0,0,0-7.37,0A9.66,9.66,0,0,0,174.4,20.77Z"/><path class="cls-1" d="M208.83,8.71a10.72,10.72,0,0,1,2.15.18l-.48,6a7.33,7.33,0,0,0-1.88-.21,6.75,6.75,0,0,0-4.75,1.57,5.62,5.62,0,0,0-1.7,4.38V32.48H195.8V9.14h4.82l.94,3.93h.31a8.84,8.84,0,0,1,2.94-3.16A7.15,7.15,0,0,1,208.83,8.71Z"/><path class="cls-1" d="M72.85,69.83,65.5,45.89h-.18q.39,7.3.39,9.75V69.83H59.93V39.31h8.81L76,62.65h.13l7.66-23.34h8.81V69.83h-6V55.39c0-.68,0-1.47,0-2.36s.12-3.26.29-7.1h-.19l-7.87,23.9Z"/><path class="cls-1" d="M110.3,70.25c-3.76,0-6.69-1-8.81-3.11s-3.17-5-3.17-8.81,1-6.93,2.93-9.07a10.44,10.44,0,0,1,8.11-3.2q5,0,7.7,2.81a10.67,10.67,0,0,1,2.76,7.79v3.09h-15A6.11,6.11,0,0,0,106.38,64a5.66,5.66,0,0,0,4.21,1.52,17.06,17.06,0,0,0,4-.44,19.76,19.76,0,0,0,3.92-1.4V68.6a14.64,14.64,0,0,1-3.57,1.24A22.51,22.51,0,0,1,110.3,70.25Zm-.9-19.66a4,4,0,0,0-3.17,1.28,5.92,5.92,0,0,0-1.32,3.64h8.94a5.34,5.34,0,0,0-1.23-3.64A4.17,4.17,0,0,0,109.4,50.59Z"/><path class="cls-1" d="M132.38,70.25a7.61,7.61,0,0,1-6.46-3.19q-2.34-3.19-2.34-8.85t2.38-9a7.76,7.76,0,0,1,6.59-3.2,7.6,7.6,0,0,1,6.72,3.42h.21a26,26,0,0,1-.48-4.65V37.35h6.39V69.83H140.5l-1.23-3H139A7.3,7.3,0,0,1,132.38,70.25Zm2.24-5.07a4.33,4.33,0,0,0,3.58-1.42q1.14-1.42,1.24-4.82v-.69c0-2.51-.39-4.3-1.16-5.39a4.32,4.32,0,0,0-3.77-1.63A3.73,3.73,0,0,0,131.2,53,9.68,9.68,0,0,0,130,58.29a9.19,9.19,0,0,0,1.18,5.17A3.92,3.92,0,0,0,134.62,65.18Z"/><path class="cls-1" d="M151.78,40.46q0-3.1,3.46-3.11t3.47,3.11a3,3,0,0,1-.87,2.31,3.64,3.64,0,0,1-2.6.82Q151.78,43.59,151.78,40.46Zm6.63,29.37h-6.36V46.5h6.36Z"/><path class="cls-1" d="M179.91,69.83l-1.23-3.17h-.16a9.5,9.5,0,0,1-3.31,2.81,10.78,10.78,0,0,1-4.44.78,7.17,7.17,0,0,1-5.29-1.92,7.36,7.36,0,0,1-1.93-5.47,6.17,6.17,0,0,1,2.6-5.48c1.73-1.17,4.34-1.83,7.84-2l4-.13v-1c0-2.36-1.21-3.55-3.64-3.55a16.67,16.67,0,0,0-6.57,1.69l-2.11-4.3A19,19,0,0,1,174.65,46c3.14,0,5.54.69,7.21,2.05s2.5,3.44,2.5,6.22V69.83ZM178,59l-2.47.08a7.93,7.93,0,0,0-4.13,1,3.15,3.15,0,0,0-1.36,2.8c0,1.8,1,2.69,3.09,2.69a4.88,4.88,0,0,0,3.54-1.27A4.48,4.48,0,0,0,178,60.94Z"/><path class="cls-1" d="M22.52,107.2l-2.21-7.27H9.18L7,107.2H0L10.77,76.55h7.91L29.5,107.2ZM18.77,94.5q-3.08-9.87-3.46-11.16c-.26-.87-.44-1.55-.55-2Q14.07,84,10.81,94.5Z"/><path class="cls-1" d="M40.22,107.61a7.58,7.58,0,0,1-6.46-3.19q-2.34-3.19-2.34-8.85c0-3.83.79-6.81,2.39-8.95a7.76,7.76,0,0,1,6.58-3.2,7.6,7.6,0,0,1,6.72,3.42h.21a26,26,0,0,1-.48-4.65V74.71h6.39V107.2H48.34l-1.23-3h-.27A7.3,7.3,0,0,1,40.22,107.61Zm2.24-5.07A4.3,4.3,0,0,0,46,101.12c.76-1,1.17-2.55,1.24-4.82v-.69q0-3.75-1.16-5.39a4.31,4.31,0,0,0-3.77-1.62A3.75,3.75,0,0,0,39,90.4a9.73,9.73,0,0,0-1.17,5.25,9.08,9.08,0,0,0,1.19,5.17A3.87,3.87,0,0,0,42.46,102.54Z"/><path class="cls-1" d="M65.44,107.2,56.55,83.86h6.66l4.51,13.3a24,24,0,0,1,.94,4.77h.12a20.61,20.61,0,0,1,.94-4.77l4.49-13.3h6.66L72,107.2Z"/><path class="cls-1" d="M94.77,107.61c-3.76,0-6.69-1-8.81-3.11s-3.17-5-3.17-8.81,1-6.93,2.93-9.07a10.46,10.46,0,0,1,8.11-3.2q5,0,7.7,2.82A10.64,10.64,0,0,1,104.29,94v3.09H89.24a6.15,6.15,0,0,0,1.6,4.24,5.66,5.66,0,0,0,4.22,1.52,17.62,17.62,0,0,0,4-.43A20.42,20.42,0,0,0,103,101V106a15.1,15.1,0,0,1-3.57,1.25A22.59,22.59,0,0,1,94.77,107.61ZM93.87,88a4,4,0,0,0-3.17,1.28,6,6,0,0,0-1.32,3.65h8.94a5.35,5.35,0,0,0-1.23-3.65A4.21,4.21,0,0,0,93.87,88Z"/><path class="cls-1" d="M122.49,83.42a10,10,0,0,1,2.15.19l-.48,6a7.22,7.22,0,0,0-1.88-.21,6.78,6.78,0,0,0-4.75,1.56,5.69,5.69,0,0,0-1.7,4.39V107.2h-6.37V83.86h4.83l.94,3.92h.31a8.72,8.72,0,0,1,2.93-3.16A7.23,7.23,0,0,1,122.49,83.42Z"/><path class="cls-1" d="M138.71,102.54a13.74,13.74,0,0,0,4-.73v4.74a14.33,14.33,0,0,1-5.85,1.06c-2.54,0-4.4-.64-5.56-1.93s-1.74-3.22-1.74-5.79V88.64h-3V86L130,83.82l1.83-4.93h4.07v5h6.54v4.78h-6.54V99.89a2.48,2.48,0,0,0,.77,2A2.93,2.93,0,0,0,138.71,102.54Z"/><path class="cls-1" d="M147.16,77.83q0-3.12,3.47-3.12t3.46,3.12a3.05,3.05,0,0,1-.86,2.3,3.66,3.66,0,0,1-2.6.83C148.32,81,147.16,79.91,147.16,77.83Zm6.64,29.37h-6.37V83.86h6.37Z"/><path class="cls-1" d="M176.76,100.26a6.42,6.42,0,0,1-2.49,5.47c-1.66,1.26-4.15,1.88-7.46,1.88a23.55,23.55,0,0,1-4.35-.34,17,17,0,0,1-3.36-1V101a22.55,22.55,0,0,0,4,1.39A16,16,0,0,0,167,103c2.32,0,3.47-.67,3.47-2a1.67,1.67,0,0,0-.46-1.22,6.51,6.51,0,0,0-1.59-1.06c-.75-.4-1.75-.86-3-1.39a18.69,18.69,0,0,1-4-2.09,5.83,5.83,0,0,1-1.83-2.2,7.17,7.17,0,0,1-.58-3.06,5.56,5.56,0,0,1,2.41-4.81,11.8,11.8,0,0,1,6.84-1.7,19.32,19.32,0,0,1,8.2,1.84l-1.92,4.59q-1.76-.75-3.27-1.23a10.35,10.35,0,0,0-3.11-.48c-1.88,0-2.82.51-2.82,1.52a1.78,1.78,0,0,0,.9,1.48,24.86,24.86,0,0,0,4,1.86,18.7,18.7,0,0,1,4,2.07,6.2,6.2,0,0,1,1.88,2.21A6.86,6.86,0,0,1,176.76,100.26Z"/><path class="cls-1" d="M181.46,77.83c0-2.08,1.16-3.12,3.46-3.12s3.47,1,3.47,3.12a3,3,0,0,1-.87,2.3,3.62,3.62,0,0,1-2.6.83C182.62,81,181.46,79.91,181.46,77.83Zm6.64,29.37h-6.37V83.86h6.37Z"/><path class="cls-1" d="M216.32,107.2H210V93.56a6.59,6.59,0,0,0-.89-3.78,3.26,3.26,0,0,0-2.86-1.27,4.32,4.32,0,0,0-3.87,1.79q-1.19,1.78-1.19,5.92v11h-6.36V83.86h4.86l.86,3h.35a6.71,6.71,0,0,1,2.94-2.55,9.92,9.92,0,0,1,4.24-.87q4.08,0,6.18,2.2T216.32,92Z"/><path class="cls-1" d="M243.18,83.86v3.23l-3.65.94a6.39,6.39,0,0,1,1,3.51,7.06,7.06,0,0,1-2.62,5.85,11.32,11.32,0,0,1-7.27,2.1l-1.15-.06-.94-.1a2.11,2.11,0,0,0-1,1.67c0,.91,1.17,1.37,3.51,1.37h4A9.05,9.05,0,0,1,240.9,104a5.92,5.92,0,0,1,2,4.85,7.17,7.17,0,0,1-3.41,6.34q-3.41,2.25-9.8,2.26c-3.26,0-5.74-.57-7.46-1.71a5.39,5.39,0,0,1-2.58-4.77,5,5,0,0,1,1.31-3.52,7.52,7.52,0,0,1,3.87-2,4.23,4.23,0,0,1-1.72-1.37,3.27,3.27,0,0,1-.73-2,3.23,3.23,0,0,1,.78-2.22,9.15,9.15,0,0,1,2.23-1.75,6.23,6.23,0,0,1-2.91-2.54,7.74,7.74,0,0,1-1.08-4.14,7.27,7.27,0,0,1,2.49-5.9c1.65-1.39,4-2.09,7.09-2.09a17.9,17.9,0,0,1,2.33.18c.9.12,1.47.2,1.72.26Zm-18,26.63a2.31,2.31,0,0,0,1.26,2.07,7,7,0,0,0,3.54.75,12.53,12.53,0,0,0,5.37-.94,2.86,2.86,0,0,0,1.94-2.57,1.82,1.82,0,0,0-1.15-1.81,9.31,9.31,0,0,0-3.55-.5h-3.3a5,5,0,0,0-2.93.82A2.54,2.54,0,0,0,225.17,110.49Zm2.32-19a4.78,4.78,0,0,0,.86,3A3.15,3.15,0,0,0,231,95.61a3.06,3.06,0,0,0,2.63-1.11,4.84,4.84,0,0,0,.84-3q0-4.22-3.47-4.22T227.49,91.5Z"/></svg>