<svg id="Layer_1" data-name="Layer 1" xmlns="http://www.w3.org/2000/svg" viewBox="0 0 524.43 462.16"><defs><style>.cls-1{fill:#fff;}</style></defs><title>elements</title><path class="cls-1" d="M450.18,462.16l-4.26-15.42c21.14-5.86,39.09-20.92,50.54-42.4,12.73-23.91,15.51-52.62,7.44-76.81-7.53-22.6-23-43-44.75-59.06a168.67,168.67,0,0,0-72-29.94c-46-7.42-98.34,1.37-155.53,26.15-5.87,2.54-11.7,5.15-17.88,7.91-48.78,21.82-104.06,46.54-154.34,23.7C19.49,278.18-4.95,230.62,1.25,183.21c5.18-39.54,29.43-78.35,68.28-109.29,29.79-23.71,86-48.65,127.09-66.87,5.67-2.51,11-4.87,15.83-7L219,14.59c-4.87,2.19-10.21,4.56-15.9,7.09C165.11,38.53,107.69,64,79.5,86.44c-35.6,28.34-57.75,63.44-62.38,98.85-5.31,40.6,15.24,81.16,48.86,96.44a88.67,88.67,0,0,0,37.18,7.73c33.63,0,69.25-15.93,104-31.47,5.94-2.66,12.09-5.41,18.05-8,60-26,115.36-35.19,164.44-27.26a182.29,182.29,0,0,1,79,32.86c24.41,18,41.85,41.12,50.43,66.86,9.43,28.28,6.25,61.7-8.5,89.4C497.05,437.26,475.6,455.12,450.18,462.16Z"/></svg>