<svg id="Layer_1" data-name="Layer 1" xmlns="http://www.w3.org/2000/svg" viewBox="0 0 464.21 282.36"><defs><style>.cls-1{fill:#fff;}</style></defs><title>elements</title><path class="cls-1" d="M15.89,282.36,0,280.51c3.62-31.14,20.58-60.18,46.54-79.67a128.73,128.73,0,0,1,91.72-24.44c38.08,4.54,70.06,25.27,101,45.32l5.89,3.81c29.66,19.15,64.46,39.45,102,37.92,35.6-1.45,71-24.73,88.16-57.92,15.8-30.61,17.21-68.84,3.87-104.89-11.73-31.68-34-61.41-66.26-88.37L383.14,0c34.4,28.76,58.28,60.76,71,95.09,14.9,40.25,13.2,83.18-4.66,117.78a125.56,125.56,0,0,1-41.72,46.38c-18.44,12.36-39.19,19.33-60,20.18-42.19,1.71-79.56-20-111.29-40.46l-5.91-3.83c-29.4-19-59.8-38.76-94.19-42.85-28-3.34-58,4.64-80.21,21.35S19,255.94,15.89,282.36Z"/></svg>