<?xml version="1.0" encoding="UTF-8"?>
<svg width="861px" height="2728px" viewBox="0 0 861 2728" version="1.1" xmlns="http://www.w3.org/2000/svg" xmlns:xlink="http://www.w3.org/1999/xlink">
    <!-- Generator: Sketch 52.4 (67378) - http://www.bohemiancoding.com/sketch -->
    <title>Stroke 3</title>
    <desc>Created with Sketch.</desc>
    <g id="Page-1" stroke="none" stroke-width="1" fill="none" fill-rule="evenodd">
        <g id="lines" transform="translate(0.000000, -4.000000)" stroke="#FFFFFE" stroke-width="16">
            <path d="M668.179,167.583 C636.613,131.075 604.778,94.31
566.694,64.664 C528.61,35.019 483.393,12.612 435.256,9.13 C387.12,5.647
336.064,23.312 306.437,61.411 C272.609,104.909 273.398,171.829
308.238,214.519 C355.315,272.199 445.146,278.043 495.13,333.222
C520.79,361.547 532.99,401.566 527.497,439.388 C522.003,477.21
498.92,512.104 466.263,531.96 M331.085,621.47 C312.093,637.555
301.296,662.858 302.824,687.698 C304.353,712.539 318.17,736.327
338.991,749.963 M540.995,803.947 C576.438,820.783 612.288,837.874
642.254,862.643 C672.221,887.411 696.171,921.071 700.599,959.11
C705.029,997.151 686.378,1039.16 650.509,1056.09 C617.261,1071.79
577.352,1063.8 544.048,1049.09 C510.746,1034.37 480.493,1013.34
445.76,1002 C370.059,977.294 278.342,1006.94 232.315,1070.99
C186.287,1135.04 189.965,1227.9 240.877,1287.11 M331.328,1413.24
C341.456,1435.87 368.929,1447.96 394.939,1455.5 C420.949,1463.04
449.12,1468.74 468.821,1485.64 C483.976,1498.63 492.377,1517.64
491.232,1536.35 C490.089,1555.06 479.422,1573.14 462.773,1584.6
M215.416,1639.2 C176.549,1656.68 107.329,1685.72 74.201,1712.09
C41.072,1738.46 14.277,1774.82 8.87,1816.15 C3.463,1857.48
23.498,1903.26 62.353,1920.91 C115.22,1944.93 174.857,1912.3
228.079,1889.24 C278.202,1867.53 333.878,1853.79 388.065,1862.53
C442.252,1871.28 494.224,1906.07 511.176,1956.9 C528.128,2007.72
500.52,2071.74 447.734,2086.35 M307.216,2205.99 C291.676,2237.62
288.927,2278.33 300.01,2312.7 C311.094,2347.07 335.75,2374.3
364.64,2384.08 C395.197,2394.42 427.779,2385.8 458.001,2374.06
C488.223,2362.31 518.152,2347.34 549.765,2344.78 C581.379,2342.22
616.106,2354.86 633.614,2387.48 M773.993,2455.24 C803.958,2480.29
829.358,2511.15 842.621,2546.97 C855.883,2582.79 856.113,2623.9
838.359,2658.3 C820.605,2692.7 783.586,2718.91 743.411,2720.54
C704.466,2722.13 668.815,2702.02 636.789,2681.35 C604.763,2660.68
571.898,2638.04 533.299,2633.44 C503.11,2629.84 471.374,2638.3
447.335,2656.34 C423.296,2674.38 407.273,2701.77 403.934,2730.54"
id="Stroke-3"></path>
        </g>
    </g>
</svg>